<?xml version="1.0" encoding="utf-8"?>
<!-- Generator: Adobe Illustrator 22.0.0, SVG Export Plug-In . SVG Version: 6.00 Build 0)  -->
<svg version="1.1" id="Capa_1" xmlns="http://www.w3.org/2000/svg" xmlns:xlink="http://www.w3.org/1999/xlink" x="0px" y="0px"
	 viewBox="0 0 566.4 566.4" style="enable-background:new 0 0 566.4 566.4;" xml:space="preserve">
<style type="text/css">
	.st0{fill:#7560CC;}
</style>
<g>
	<g id="Layer_1_41_">
		<g>
			<path class="st0" d="M563,375l-58.6-117.3c-75.2,7.6-100.7,23-109.6,34.4c-1.3,2.5-6.4,8.9-1.3,24.2c11.5,39.5,0,66.3-11.5,81.6
				c-28,38.3-91.8,54.8-204,54.8c-34.4,0-58.7,7.6-66.3,19.1c-7.7,11.5-2.6,31.9,0,38.3l0,0h302.2c11.5,0,21.7-6.4,26.8-15.3
				c6.4-8.9,6.4-21.7,1.3-30.6l-20.4-42.1h110.9c11.5,0,21.7-6.4,26.8-15.3C568.1,396.7,568.1,385.2,563,375z"/>
			<path class="st0" d="M333.5,361c1.3-2.5,6.4-8.9,1.3-26.8c-10.2-35.7,0-61.2,10.2-76.5c20.4-30.6,61.2-48.4,131.3-58.6L447,139.2
				c-5.1-11.5-16.6-17.8-29.3-17.8s-23,6.4-29.3,17.8L336,245L253.1,74.1c-5.1-11.5-16.6-17.8-29.3-17.8s-22.9,6.4-29.3,17.8
				L3.2,463c-5.1,10.2-3.8,21.7,1.3,31.9c6.4,8.9,16.6,15.3,26.8,15.3h17.9c-3.8-19.1-5.1-45.9,11.5-71.4
				c20.4-31.9,59.9-48.5,118.6-48.5C293.9,390.3,325.8,372.5,333.5,361z"/>
		</g>
	</g>
</g>
</svg>
